<svg width="17" height="20" viewBox="0 0 17 20" fill="none" xmlns="http://www.w3.org/2000/svg">
<path d="M5.51489 16.75C5.51489 16.3358 5.85074 16.0001 6.26489 16C6.6791 16 7.01489 16.3358 7.01489 16.75C7.01489 17.4403 7.5746 17.9999 8.26489 18C8.95525 18 9.51489 17.4404 9.51489 16.75C9.51489 16.3358 9.85074 16.0001 10.2649 16C10.6791 16 11.0149 16.3358 11.0149 16.75C11.0149 18.2688 9.78367 19.5 8.26489 19.5C6.74617 19.4999 5.51489 18.2687 5.51489 16.75ZM13.0149 6.75C13.0149 4.56827 12.1949 3.29056 11.2395 2.54004C10.2502 1.76302 9.04754 1.5 8.26489 1.5C7.48228 1.50003 6.28042 1.76317 5.29126 2.54004C4.33576 3.29054 3.51489 4.56808 3.51489 6.75C3.51489 10.0101 2.77123 12.1908 1.94946 13.5H14.5813C13.7594 12.1908 13.0149 10.0103 13.0149 6.75ZM14.5149 6.75C14.5149 10.5113 15.5745 12.4968 16.2776 13.2764C16.5928 13.6258 16.5585 14.0669 16.4631 14.3281C16.369 14.5856 16.0839 14.9999 15.5432 15H0.987546C0.446701 15 0.160773 14.5857 0.0666477 14.3281C-0.0287039 14.0669 -0.0629715 13.6257 0.252195 13.2764L0.387937 13.1162C1.08365 12.242 2.01489 10.2766 2.01489 6.75C2.01489 4.13192 3.02833 2.40985 4.3645 1.36035C5.66684 0.337456 7.21423 3.0095e-05 8.26489 0C9.31557 0 10.8638 0.337368 12.1663 1.36035C13.5023 2.40988 14.5149 4.13216 14.5149 6.75Z" fill="#1F1F1F"/>
</svg>
