<svg width="25" height="25" viewBox="0 0 25 25" fill="none" xmlns="http://www.w3.org/2000/svg">
<path d="M16.3062 15.8302C16.3423 15.8302 16.3789 15.8298 16.4162 15.8298C16.4927 15.8298 16.5692 15.8298 16.6457 15.8305C16.7625 15.8312 16.8794 15.8305 16.9958 15.8295C17.0704 15.8298 17.145 15.8298 17.2197 15.8302C17.2718 15.8298 17.2718 15.8298 17.3251 15.8295C17.5375 15.8323 17.66 15.8588 17.8286 15.9904C17.9668 16.1255 17.9927 16.2337 17.9999 16.4147C17.9927 16.5958 17.9668 16.704 17.8286 16.8391C17.6284 16.9958 17.4701 17.0014 17.2197 16.9993C17.1652 16.9997 17.1652 16.9997 17.1097 16.9997C17.0331 17 16.9566 16.9997 16.8801 16.9989C16.7633 16.9982 16.6464 16.9989 16.53 17C16.4554 17 16.3808 16.9997 16.3062 16.9993C16.254 16.9997 16.254 16.9997 16.2007 17.0004C15.9883 16.9975 15.8658 16.9707 15.6972 16.8391C15.559 16.704 15.5331 16.5958 15.5259 16.4147C15.5331 16.2337 15.559 16.1255 15.6972 15.9904C15.8974 15.8337 16.0557 15.8281 16.3062 15.8302Z" fill="#888888"/>
<path d="M12.0435 15.8302C12.0796 15.8302 12.1162 15.8298 12.1535 15.8298C12.23 15.8298 12.3065 15.8298 12.383 15.8305C12.4998 15.8312 12.6167 15.8305 12.7331 15.8295C12.8078 15.8298 12.8824 15.8298 12.957 15.8302C13.0091 15.8298 13.0091 15.8298 13.0624 15.8295C13.2748 15.8323 13.3973 15.8588 13.566 15.9904C13.7041 16.1255 13.73 16.2337 13.7372 16.4147C13.73 16.5958 13.7041 16.704 13.566 16.8391C13.3657 16.9958 13.2074 17.0014 12.957 16.9993C12.9025 16.9997 12.9025 16.9997 12.847 16.9997C12.7704 17 12.6939 16.9997 12.6174 16.9989C12.5006 16.9982 12.3837 16.9989 12.2673 17C12.1927 17 12.1181 16.9997 12.0435 16.9993C11.9913 16.9997 11.9913 16.9997 11.938 17.0004C11.7256 16.9975 11.6031 16.9707 11.4345 16.8391C11.2963 16.704 11.2704 16.5958 11.2632 16.4147C11.2704 16.2337 11.2963 16.1255 11.4345 15.9904C11.6347 15.8337 11.793 15.8281 12.0435 15.8302Z" fill="#888888"/>
<path d="M7.78028 15.8302C7.81644 15.8302 7.85298 15.8298 7.89028 15.8298C7.96678 15.8298 8.04329 15.8298 8.11979 15.8305C8.23664 15.8312 8.35349 15.8305 8.46997 15.8295C8.54457 15.8298 8.61917 15.8298 8.69377 15.8302C8.74592 15.8298 8.74592 15.8298 8.7992 15.8295C9.01159 15.8323 9.13415 15.8588 9.30277 15.9904C9.44093 16.1255 9.46682 16.2337 9.47405 16.4147C9.46682 16.5958 9.44093 16.704 9.30277 16.8391C9.10256 16.9958 8.94422 17.0014 8.69377 16.9993C8.63934 16.9997 8.63934 16.9997 8.58377 16.9997C8.50727 17 8.43076 16.9997 8.35426 16.9989C8.2374 16.9982 8.12055 16.9989 8.00408 17C7.92948 17 7.85488 16.9997 7.78028 16.9993C7.72813 16.9997 7.72813 16.9997 7.67484 17.0004C7.46246 16.9975 7.3399 16.9707 7.17128 16.8391C7.03311 16.704 7.00723 16.5958 7 16.4147C7.00723 16.2337 7.03311 16.1255 7.17128 15.9904C7.37149 15.8337 7.52983 15.8281 7.78028 15.8302Z" fill="#888888"/>
<path d="M16.3062 13.0007C16.3424 13.0007 16.3789 13.0004 16.4162 13.0004C16.4927 13.0004 16.5692 13.0004 16.6457 13.0011C16.7626 13.0018 16.8794 13.0011 16.9959 13C17.0705 13.0004 17.1451 13.0004 17.2197 13.0007C17.2719 13.0004 17.2719 13.0004 17.3251 13C17.5375 13.0028 17.6601 13.0294 17.8287 13.1609C17.9669 13.296 17.9928 13.4042 18 13.5853C17.9928 13.7663 17.9669 13.8745 17.8287 14.0096C17.6285 14.1663 17.4702 14.172 17.2197 14.1698C17.1653 14.1702 17.1653 14.1702 17.1097 14.1702C17.0332 14.1705 16.9567 14.1702 16.8802 14.1695C16.7633 14.1688 16.6465 14.1695 16.53 14.1705C16.4554 14.1705 16.3808 14.1702 16.3062 14.1698C16.2541 14.1702 16.2541 14.1702 16.2008 14.1709C15.9884 14.1681 15.8658 14.1412 15.6972 14.0096C15.5591 13.8745 15.5332 13.7663 15.5259 13.5853C15.5332 13.4042 15.5591 13.296 15.6972 13.1609C15.8974 13.0042 16.0558 12.9986 16.3062 13.0007Z" fill="#888888"/>
<path d="M12.0433 13.0007C12.0795 13.0007 12.116 13.0004 12.1533 13.0004C12.2298 13.0004 12.3063 13.0004 12.3829 13.0011C12.4997 13.0018 12.6166 13.0011 12.733 13C12.8076 13.0004 12.8822 13.0004 12.9568 13.0007C13.009 13.0004 13.009 13.0004 13.0623 13C13.2747 13.0028 13.3972 13.0294 13.5658 13.1609C13.704 13.296 13.7299 13.4042 13.7371 13.5853C13.7299 13.7663 13.704 13.8745 13.5658 14.0096C13.3656 14.1663 13.2073 14.172 12.9568 14.1698C12.9024 14.1702 12.9024 14.1702 12.8468 14.1702C12.7703 14.1705 12.6938 14.1702 12.6173 14.1695C12.5005 14.1688 12.3836 14.1695 12.2671 14.1705C12.1925 14.1705 12.1179 14.1702 12.0433 14.1698C11.9912 14.1702 11.9912 14.1702 11.9379 14.1709C11.7255 14.1681 11.603 14.1412 11.4343 14.0096C11.2962 13.8745 11.2703 13.7663 11.2631 13.5853C11.2703 13.4042 11.2962 13.296 11.4343 13.1609C11.6345 13.0042 11.7929 12.9986 12.0433 13.0007Z" fill="#888888"/>
<path d="M7.78028 13.0007C7.81644 13.0007 7.85298 13.0004 7.89028 13.0004C7.96678 13.0004 8.04329 13.0004 8.11979 13.0011C8.23664 13.0018 8.35349 13.0011 8.46997 13C8.54457 13.0004 8.61917 13.0004 8.69377 13.0007C8.74592 13.0004 8.74592 13.0004 8.7992 13C9.01159 13.0028 9.13415 13.0294 9.30277 13.1609C9.44093 13.296 9.46682 13.4042 9.47405 13.5853C9.46682 13.7663 9.44093 13.8745 9.30277 14.0096C9.10256 14.1663 8.94422 14.172 8.69377 14.1698C8.63934 14.1702 8.63934 14.1702 8.58377 14.1702C8.50727 14.1705 8.43076 14.1702 8.35426 14.1695C8.2374 14.1688 8.12055 14.1695 8.00408 14.1705C7.92948 14.1705 7.85488 14.1702 7.78028 14.1698C7.72813 14.1702 7.72813 14.1702 7.67484 14.1709C7.46246 14.1681 7.3399 14.1412 7.17128 14.0096C7.03311 13.8745 7.00723 13.7663 7 13.5853C7.00723 13.4042 7.03311 13.296 7.17128 13.1609C7.37149 13.0042 7.52983 12.9986 7.78028 13.0007Z" fill="#888888"/>
<path d="M8.48717 4.01869C8.69349 4.11447 8.73249 4.19701 8.86574 4.39729C8.86574 4.67215 8.86574 4.94702 8.86574 5.23021C9.86516 5.23021 10.8646 5.23021 11.8943 5.23021C11.8943 4.95535 11.8943 4.68048 11.8943 4.39729C12.09 4.10349 12.09 4.10349 12.2729 4.01869C12.4849 3.99029 12.6639 3.98953 12.8596 4.08002C12.9543 4.17013 12.9543 4.17013 13.1057 4.39729C13.1057 4.67215 13.1057 4.94702 13.1057 5.23021C14.1051 5.23021 15.1046 5.23021 16.1343 5.23021C16.1343 4.95535 16.1343 4.68048 16.1343 4.39729C16.33 4.10349 16.33 4.10349 16.5128 4.01869C16.7248 3.99029 16.9039 3.98953 17.0996 4.08002C17.2348 4.20837 17.3343 4.30567 17.3578 4.49383C17.3604 4.60552 17.3589 4.71607 17.3551 4.82814C17.3544 4.86675 17.3536 4.90537 17.3532 4.94513C17.3514 5.04015 17.3487 5.13518 17.3457 5.23021C17.3722 5.22983 17.3987 5.22946 17.4259 5.22908C17.6777 5.22605 17.9294 5.22378 18.1812 5.22226C18.3103 5.2215 18.4397 5.22037 18.5688 5.21885C18.7184 5.21696 18.8675 5.2162 19.0167 5.21545C19.0852 5.21431 19.0852 5.21431 19.1552 5.21318C19.7057 5.2128 20.1157 5.40058 20.5162 5.77199C20.9091 6.18732 20.9974 6.64543 20.9947 7.20008C20.9947 7.25308 20.9951 7.30609 20.9951 7.35947C20.9958 7.50448 20.9955 7.64948 20.9955 7.79449C20.9951 7.95123 20.9955 8.10797 20.9958 8.26471C20.9966 8.57138 20.9966 8.87842 20.9966 9.18509C20.9962 9.43459 20.9966 9.68409 20.9966 9.93321C20.9966 9.9688 20.9966 10.0044 20.9966 10.0411C20.9966 10.1134 20.997 10.1854 20.997 10.2577C20.9974 10.9342 20.9974 11.6112 20.9966 12.2877C20.9962 12.9064 20.997 13.525 20.9977 14.1436C20.9989 14.7793 20.9992 15.415 20.9989 16.051C20.9985 16.4077 20.9989 16.7643 20.9992 17.121C21 17.4246 21 17.7283 20.9992 18.0319C20.9989 18.1867 20.9989 18.3416 20.9996 18.4964C21 18.6384 21 18.78 20.9992 18.922C20.9989 18.9973 20.9996 19.0723 21 19.1476C20.9955 19.7015 20.8126 20.1127 20.4382 20.5163C20.0078 20.9237 19.5368 20.9971 18.9644 20.9948C18.9061 20.9948 18.8482 20.9952 18.7899 20.9952C18.6313 20.996 18.4723 20.9956 18.3137 20.9956C18.1418 20.9952 17.9703 20.9956 17.7988 20.996C17.4627 20.9967 17.1269 20.9967 16.7911 20.9967C16.5177 20.9963 16.2448 20.9967 15.9719 20.9967C15.9136 20.9967 15.9136 20.9967 15.8537 20.9967C15.775 20.9967 15.6959 20.9971 15.6168 20.9971C14.8759 20.9975 14.135 20.9975 13.3942 20.9967C12.7169 20.9963 12.0397 20.9971 11.3624 20.9979C10.6666 20.999 9.97078 20.9994 9.2746 20.999C8.88429 20.9986 8.49361 20.999 8.1033 20.9994C7.77054 21.0001 7.43816 21.0001 7.10578 20.9994C6.93618 20.999 6.76696 20.999 6.59736 20.9998C6.44177 21.0001 6.28655 21.0001 6.13134 20.9994C6.07531 20.999 6.01928 20.9994 5.96326 20.9998C5.36133 21.0035 4.92598 20.8483 4.48381 20.4383C4.09086 20.023 4.00265 19.5648 4.0053 19.0102C4.0053 18.9572 4.00492 18.9042 4.00492 18.8508C4.00416 18.7058 4.00454 18.5608 4.00454 18.4158C4.00492 18.2591 4.00454 18.1023 4.00416 17.9456C4.00341 17.6389 4.00341 17.3319 4.00341 17.0252C4.00379 16.7757 4.00341 16.5262 4.00341 16.2771C4.00341 16.2415 4.00341 16.2059 4.00341 16.1692C4.00341 16.0969 4.00303 16.0249 4.00303 15.9526C4.00265 15.276 4.00265 14.5991 4.00341 13.9225C4.00379 13.3039 4.00303 12.6853 4.00227 12.0666C4.00114 11.431 4.00076 10.7953 4.00114 10.1592C4.00151 9.80259 4.00114 9.44595 4.00076 9.0893C4 8.78567 4 8.48203 4.00076 8.17839C4.00114 8.02354 4.00114 7.86869 4.00038 7.71384C4 7.57187 4 7.43027 4.00076 7.28829C4.00114 7.21295 4.00038 7.13799 4 7.06265C4.00454 6.50875 4.18739 6.09759 4.5618 5.694C4.97292 5.3048 5.42645 5.21204 5.97575 5.21923C6.02421 5.21923 6.07228 5.21961 6.12188 5.21961C6.2487 5.21999 6.37552 5.22113 6.50234 5.22226C6.63257 5.2234 6.76241 5.22416 6.89226 5.22453C7.14628 5.22605 7.4003 5.22794 7.65432 5.23021C7.65319 5.19425 7.65319 5.19425 7.65205 5.15752C7.64864 5.04773 7.64675 4.93793 7.64486 4.82814C7.64372 4.79028 7.64221 4.75242 7.64107 4.71342C7.63804 4.4802 7.65016 4.34731 7.80575 4.17013C8.00526 3.98045 8.22634 3.98348 8.48717 4.01869ZM5.38518 6.65944C4.91765 7.3962 5.23148 9.18358 5.23148 9.47056C10.0287 9.47056 14.8259 9.47056 19.7685 9.47056C19.9521 8.32983 19.9521 8.32983 19.5508 6.59545C19.2885 6.42887 19.0417 6.43114 18.7396 6.43417C18.6794 6.43455 18.6794 6.43455 18.6184 6.43455C18.4916 6.43493 18.3644 6.43606 18.2376 6.4372C18.1513 6.43758 18.065 6.43758 17.9786 6.43795C17.7678 6.43871 17.5565 6.44023 17.3457 6.44174C17.3453 6.47771 17.3453 6.47771 17.3445 6.51443C17.3426 6.6246 17.3392 6.73402 17.3362 6.84382C17.3358 6.88168 17.3351 6.91954 17.3347 6.95853C17.3271 7.18796 17.309 7.32691 17.1564 7.50183C16.9588 7.65554 16.7532 7.64456 16.5128 7.61541C16.3213 7.52454 16.2849 7.46245 16.1721 7.27466C16.1596 6.9998 16.1471 6.72493 16.1343 6.44174C15.1348 6.44174 14.1354 6.44174 13.1057 6.44174C13.0932 6.7166 13.0807 6.99147 13.0679 7.27466C12.8877 7.54461 12.8877 7.54461 12.7271 7.61541C12.517 7.64683 12.3308 7.64267 12.1381 7.55142C11.794 7.22507 11.9193 6.99147 11.8943 6.44174C10.8949 6.44174 9.89545 6.44174 8.86574 6.44174C8.85325 6.7166 8.84076 6.99147 8.82789 7.27466C8.64769 7.54461 8.64769 7.54461 8.48717 7.61541C8.27707 7.64683 8.09081 7.64267 7.89812 7.55142C7.70467 7.36818 7.67817 7.2209 7.66871 6.96194C7.66795 6.9237 7.66719 6.88584 7.66606 6.84647C7.66492 6.80747 7.66341 6.76847 7.66227 6.72872C7.65924 6.63293 7.65659 6.53753 7.65432 6.44174C7.40182 6.43871 7.14931 6.43682 6.89681 6.43568C6.81087 6.43493 6.72494 6.43417 6.63938 6.43303C6.51559 6.4319 6.3918 6.43114 6.268 6.43076C6.23015 6.43 6.19191 6.42962 6.15292 6.42887C5.87884 6.42887 5.58128 6.44515 5.38518 6.65944ZM5.23148 10.6821C5.22921 12.0742 5.22694 13.4667 5.22429 14.9012C5.22353 15.3408 5.2224 15.7803 5.22126 16.2335C5.22088 16.6273 5.22088 16.6273 5.2205 17.0214C5.2205 17.1971 5.22013 17.3724 5.21937 17.548C5.21861 17.7722 5.21861 17.9959 5.21861 18.2201C5.21861 18.3022 5.21823 18.3844 5.21786 18.4665C5.21748 18.5775 5.21748 18.6888 5.21786 18.7997C5.21748 18.8319 5.2171 18.8637 5.21672 18.8966C5.21861 19.1272 5.24473 19.3782 5.39313 19.5641C5.67024 19.8159 6.02307 19.7795 6.37249 19.7784C6.42776 19.7784 6.48265 19.7788 6.53755 19.7788C6.68822 19.7791 6.83889 19.7791 6.98956 19.7791C7.15234 19.7788 7.31475 19.7791 7.47753 19.7795C7.79591 19.7799 8.11428 19.7799 8.43304 19.7799C8.6916 19.7799 8.95054 19.7799 9.20948 19.7803C9.24658 19.7803 9.2833 19.7803 9.32116 19.7803C9.39612 19.7803 9.47107 19.7803 9.54565 19.7803C10.2479 19.7807 10.9498 19.7807 11.652 19.7803C12.2941 19.7803 12.9361 19.7807 13.5782 19.7814C14.2376 19.7822 14.8971 19.7825 15.5566 19.7822C15.9268 19.7822 16.297 19.7822 16.6669 19.7829C16.9823 19.7833 17.2972 19.7833 17.6126 19.7829C17.7731 19.7825 17.934 19.7825 18.0949 19.7829C18.2421 19.7837 18.389 19.7833 18.5363 19.7829C18.5897 19.7829 18.6427 19.7829 18.696 19.7833C19.1556 19.7931 19.1556 19.7931 19.5633 19.6069C19.7731 19.379 19.7795 19.1003 19.7776 18.8088C19.7776 18.7743 19.7776 18.7395 19.778 18.7035C19.778 18.5869 19.7776 18.4707 19.7772 18.3541C19.7772 18.2693 19.7772 18.1845 19.7772 18.0993C19.7772 17.8721 19.7768 17.6446 19.7761 17.4174C19.7757 17.2039 19.7757 16.9907 19.7757 16.7772C19.7753 16.1536 19.7742 15.5297 19.7731 14.9058C19.7715 13.5121 19.77 12.1181 19.7685 10.6821C14.9713 10.6821 10.1741 10.6821 5.23148 10.6821Z" fill="#888888"/>
</svg>