<svg width="16" height="18" viewBox="0 0 16 18" fill="none" xmlns="http://www.w3.org/2000/svg">
<path d="M4.25 2.5H3.55017C2.57008 2.5 2.07967 2.5 1.70532 2.69074C1.37604 2.85852 1.10852 3.12604 0.940739 3.45532C0.75 3.82967 0.75 4.32008 0.75 5.30017V6M4.25 2.5H11.25M4.25 2.5V0.75M11.25 2.5H11.9502C12.9303 2.5 13.4196 2.5 13.794 2.69074C14.1233 2.85852 14.3917 3.12604 14.5594 3.45532C14.75 3.8293 14.75 4.31912 14.75 5.2973V6M11.25 2.5V0.75M0.75 6V13.7002C0.75 14.6803 0.75 15.1701 0.940739 15.5444C1.10852 15.8737 1.37604 16.1417 1.70532 16.3094C2.0793 16.5 2.56912 16.5 3.5473 16.5H11.9527C12.9309 16.5 13.42 16.5 13.794 16.3094C14.1233 16.1417 14.3917 15.8737 14.5594 15.5444C14.75 15.1704 14.75 14.6813 14.75 13.7031V6M0.75 6H14.75M11.25 13H11.2517L11.2517 13.0017L11.25 13.0017V13ZM7.75 13H7.75175L7.75171 13.0017L7.75 13.0017V13ZM4.25 13H4.25175L4.25171 13.0017L4.25 13.0017V13ZM11.2517 9.5V9.50175L11.25 9.50171V9.5H11.2517ZM7.75 9.5H7.75175L7.75171 9.50175L7.75 9.50171V9.5ZM4.25 9.5H4.25175L4.25171 9.50175L4.25 9.50171V9.5Z" stroke="#1F1F1F" stroke-width="1.5" stroke-linecap="round" stroke-linejoin="round"/>
</svg>
