<svg width="24" height="24" viewBox="0 0 24 24" fill="none" xmlns="http://www.w3.org/2000/svg">
<circle cx="12" cy="12" r="12" fill="#EFEFEF"/>
<path d="M18.5454 16.2424C18.5454 16.5639 18.4201 16.8722 18.1969 17.0995C17.9737 17.3268 17.671 17.4545 17.3554 17.4545H6.64461C6.32898 17.4545 6.02628 17.3268 5.8031 17.0995C5.57991 16.8722 5.45453 16.5639 5.45453 16.2424V9.57571C5.45453 9.25424 5.57991 8.94593 5.8031 8.71861C6.02628 8.4913 6.32898 8.36359 6.64461 8.36359H9.02478L10.2149 6.54541H13.7851L14.9752 8.36359H17.3554C17.671 8.36359 17.9737 8.4913 18.1969 8.71861C18.4201 8.94593 18.5454 9.25424 18.5454 9.57571V16.2424Z" stroke="#6D6D6D" stroke-linecap="round" stroke-linejoin="round"/>
<path d="M12 15.0303C13.3145 15.0303 14.3801 13.9449 14.3801 12.606C14.3801 11.2671 13.3145 10.1818 12 10.1818C10.6855 10.1818 9.61982 11.2671 9.61982 12.606C9.61982 13.9449 10.6855 15.0303 12 15.0303Z" stroke="#6D6D6D" stroke-linecap="round" stroke-linejoin="round"/>
</svg>
