<svg width="118" height="12" viewBox="0 0 118 12" fill="none" xmlns="http://www.w3.org/2000/svg">
<path d="M5.47567 11.1845C4.449 11.1845 3.51567 10.946 2.67567 10.4689C1.84604 9.98154 1.19271 9.31784 0.71567 8.47784C0.238632 7.62747 0.000113957 6.67339 0.000113957 5.61561C0.000113957 4.55784 0.238632 3.60895 0.71567 2.76895C1.19271 1.91858 1.84604 1.25487 2.67567 0.777836C3.51567 0.290429 4.45419 0.0467249 5.49123 0.0467249C6.30011 0.0467249 7.0416 0.19191 7.71567 0.482281C8.38974 0.76228 8.96011 1.18228 9.42678 1.74228L8.49345 2.67561C7.7053 1.81487 6.7253 1.3845 5.55345 1.3845C4.77567 1.3845 4.07567 1.56598 3.45345 1.92895C2.8416 2.29191 2.35937 2.80006 2.00678 3.45339C1.65419 4.09635 1.47789 4.8171 1.47789 5.61561C1.47789 6.41413 1.65419 7.13487 2.00678 7.77784C2.35937 8.4208 2.84678 8.92376 3.469 9.28673C4.09123 9.64969 4.78604 9.83117 5.55345 9.83117C6.73567 9.83117 7.71567 9.39561 8.49345 8.5245L9.42678 9.45784C8.94974 10.0178 8.37419 10.4482 7.70011 10.7489C7.02604 11.0393 6.28456 11.1845 5.47567 11.1845ZM12.8711 8.30673L11.72 11.0601H10.1956L14.9089 0.17117H16.34L21.0689 11.0601H19.5133L18.3622 8.30673H12.8711ZM15.6245 1.74228L13.3533 7.09339H17.88L15.6245 1.74228ZM32.4452 2.9245L28.6652 9.72228H27.9963L24.2163 3.01784V11.0601H22.8318V0.17117H24.0296L28.3541 7.87117L32.6318 0.17117H33.8296L33.8452 11.0601H32.4607L32.4452 2.9245ZM41.0167 0.17117C42.3545 0.17117 43.4071 0.508207 44.1745 1.18228C44.9523 1.84598 45.3412 2.76895 45.3412 3.95117C45.3412 5.13339 44.9523 6.06154 44.1745 6.73561C43.4071 7.39932 42.3545 7.73117 41.0167 7.73117H38.45V11.0601H36.9878V0.17117H41.0167ZM40.97 6.44006C41.9137 6.44006 42.6293 6.22228 43.1167 5.78673C43.6145 5.35117 43.8634 4.73932 43.8634 3.95117C43.8634 3.15265 43.6145 2.5408 43.1167 2.11561C42.6293 1.68006 41.9137 1.46228 40.97 1.46228H38.45V6.44006H40.97ZM52.0705 11.1845C50.6913 11.1845 49.6179 10.7697 48.8505 9.94006C48.0831 9.11043 47.6994 7.91784 47.6994 6.36228V0.17117H49.1616V6.30006C49.1616 8.65413 50.1364 9.83117 52.0861 9.83117C54.0357 9.83117 55.0105 8.65413 55.0105 6.30006V0.17117H56.4416V6.36228C56.4416 7.92821 56.0579 9.12598 55.2905 9.95561C54.5231 10.7749 53.4498 11.1845 52.0705 11.1845ZM62.6352 11.1845C61.847 11.1845 61.09 11.0549 60.3641 10.7956C59.6485 10.5364 59.0833 10.1993 58.6685 9.7845L59.2129 8.63339C59.607 9.00673 60.11 9.31265 60.7218 9.55117C61.3441 9.78969 61.9818 9.90895 62.6352 9.90895C63.4855 9.90895 64.1233 9.75339 64.5485 9.44228C64.9737 9.1208 65.1863 8.70598 65.1863 8.19784C65.1863 7.81413 65.067 7.50302 64.8285 7.2645C64.6004 7.02598 64.31 6.8445 63.9574 6.72006C63.6048 6.58524 63.1226 6.44006 62.5107 6.2845C61.7433 6.08747 61.1211 5.89043 60.6441 5.69339C60.167 5.49635 59.7574 5.19561 59.4152 4.79117C59.0833 4.38673 58.9174 3.8371 58.9174 3.14228C58.9174 2.57191 59.0626 2.05339 59.3529 1.58673C59.6433 1.10969 60.0841 0.736355 60.6752 0.466725C61.2766 0.186725 62.0078 0.0467249 62.8685 0.0467249C63.4907 0.0467249 64.0922 0.134873 64.6729 0.311169C65.2641 0.477096 65.7774 0.715614 66.2129 1.02672L65.7307 2.20895C65.2952 1.90821 64.8285 1.68524 64.3307 1.54006C63.8329 1.3845 63.3455 1.30673 62.8685 1.30673C62.0389 1.30673 61.4166 1.47265 61.0018 1.8045C60.587 2.13635 60.3796 2.56154 60.3796 3.08006C60.3796 3.46376 60.4989 3.77487 60.7374 4.01339C60.9759 4.25191 61.2715 4.43858 61.6241 4.57339C61.9766 4.69784 62.4589 4.83784 63.0707 4.99339C63.8381 5.19043 64.4552 5.38747 64.9218 5.5845C65.3989 5.77117 65.8033 6.06673 66.1352 6.47117C66.4774 6.87561 66.6485 7.41487 66.6485 8.08895C66.6485 8.65932 66.4981 9.17784 66.1974 9.6445C65.8966 10.1112 65.4455 10.4845 64.8441 10.7645C64.2426 11.0445 63.5063 11.1845 62.6352 11.1845ZM69.4619 3.45339C69.1819 3.45339 68.9382 3.35487 68.7308 3.15784C68.5338 2.9608 68.4353 2.71191 68.4353 2.41117C68.4353 2.1208 68.5338 1.88228 68.7308 1.69561C68.9382 1.49858 69.1819 1.40006 69.4619 1.40006C69.7523 1.40006 69.996 1.49858 70.193 1.69561C70.3901 1.88228 70.4886 2.1208 70.4886 2.41117C70.4886 2.71191 70.3901 2.9608 70.193 3.15784C69.996 3.35487 69.7523 3.45339 69.4619 3.45339ZM69.4619 9.81561C69.1819 9.81561 68.9382 9.7171 68.7308 9.52006C68.5338 9.32302 68.4353 9.07932 68.4353 8.78895C68.4353 8.48821 68.5338 8.2445 68.7308 8.05784C68.9279 7.8608 69.1716 7.76228 69.4619 7.76228C69.7523 7.76228 69.996 7.8608 70.193 8.05784C70.3901 8.2445 70.4886 8.48821 70.4886 8.78895C70.4886 9.07932 70.3901 9.32302 70.193 9.52006C69.996 9.7171 69.7523 9.81561 69.4619 9.81561ZM75.0445 5.1645H79.96V6.93784H75.0445V11.0601H72.96V0.17117H80.5978V1.9445H75.0445V5.1645ZM87.6575 11.2312C86.5997 11.2312 85.6456 10.9875 84.7953 10.5001C83.9449 10.0127 83.276 9.34376 82.7886 8.49339C82.3012 7.63265 82.0575 6.67339 82.0575 5.61561C82.0575 4.55784 82.3012 3.60376 82.7886 2.75339C83.276 1.89265 83.9449 1.21858 84.7953 0.73117C85.6456 0.243762 86.5997 5.82933e-05 87.6575 5.82933e-05C88.7153 5.82933e-05 89.6693 0.243762 90.5197 0.73117C91.3805 1.21858 92.0545 1.88747 92.5419 2.73784C93.0293 3.58821 93.273 4.54747 93.273 5.61561C93.273 6.68376 93.0293 7.64302 92.5419 8.49339C92.0545 9.34376 91.3805 10.0127 90.5197 10.5001C89.6693 10.9875 88.7153 11.2312 87.6575 11.2312ZM87.6575 9.34895C88.3212 9.34895 88.9175 9.19339 89.4464 8.88228C89.9856 8.5608 90.4056 8.11487 90.7064 7.5445C91.0175 6.97413 91.173 6.33117 91.173 5.61561C91.173 4.90006 91.0175 4.2571 90.7064 3.68672C90.4056 3.11635 89.9856 2.67561 89.4464 2.3645C88.9175 2.04302 88.3212 1.88228 87.6575 1.88228C87.0042 1.88228 86.4079 2.04302 85.8686 2.3645C85.3397 2.67561 84.9197 3.11635 84.6086 3.68672C84.3079 4.2571 84.1575 4.90006 84.1575 5.61561C84.1575 6.33117 84.3079 6.97413 84.6086 7.5445C84.9197 8.11487 85.3397 8.5608 85.8686 8.88228C86.4079 9.19339 87.0042 9.34895 87.6575 9.34895ZM100.006 7.90228C99.9433 7.91265 99.85 7.91784 99.7255 7.91784H97.4855V11.0601H95.4011V0.17117H99.7255C100.628 0.17117 101.411 0.326725 102.074 0.637836C102.748 0.948947 103.262 1.40006 103.614 1.99117C103.977 2.57191 104.159 3.26154 104.159 4.06006C104.159 4.87932 103.967 5.5845 103.583 6.17561C103.21 6.76673 102.676 7.20747 101.981 7.49784L104.346 11.0601H102.106L100.006 7.90228ZM99.6166 6.16006C100.405 6.16006 101.006 5.97858 101.421 5.61561C101.846 5.24228 102.059 4.72376 102.059 4.06006C102.059 3.39635 101.851 2.88302 101.437 2.52006C101.022 2.1571 100.415 1.97561 99.6166 1.97561H97.4855V6.16006H99.6166ZM115.918 3.99784L112.62 9.84673H111.687L108.405 4.12228V11.0601H106.445V0.17117H108.156L112.185 7.24895L116.151 0.17117H117.862L117.878 11.0601H115.933L115.918 3.99784Z" fill="#1F1F1F"/>
</svg>
