<svg width="196" height="196" viewBox="0 0 196 196" fill="none" xmlns="http://www.w3.org/2000/svg">
<rect width="196" height="196" fill="white"/>
<path d="M63.9899 148.619C62.5837 153.21 67.8293 156.951 71.7124 154.126L134.194 108.665C136.955 106.656 136.935 102.533 134.156 100.551L94.2996 72.1286C91.52 70.1464 87.6154 71.4711 86.6157 74.7354L63.9899 148.619Z" fill="#5A81FA"/>
<path d="M49.6736 141.779C51.4211 146.473 58.2179 145.968 59.2518 141.067L67.4926 102.005C68.1799 98.7467 65.5502 95.7396 62.2294 95.9865L40.0606 97.6352C36.7399 97.8821 34.5838 101.245 35.7456 104.366L49.6736 141.779Z" fill="#93AFFD"/>
<path d="M83.2312 152.635C79.1341 155.126 80.5526 161.397 85.3228 161.882L119.153 165.321C122.552 165.667 125.289 162.577 124.535 159.244L119.762 138.14C119.008 134.808 115.207 133.196 112.288 134.971L83.2312 152.635Z" fill="#DBE3FE"/>
<circle cx="120.408" cy="78.8903" r="4.5" transform="rotate(-9.5063 120.408 78.8903)" fill="#FFD83D"/>
<circle cx="60.8738" cy="50.3307" r="4.5" transform="rotate(-9.5063 60.8738 50.3307)" fill="#FE5E5E"/>
<circle cx="126.878" cy="47.8962" r="7" transform="rotate(-9.5063 126.878 47.8962)" fill="#52E05B"/>
<circle cx="43.2104" cy="62.9206" r="7" transform="rotate(-9.5063 43.2104 62.9206)" fill="#5A81FA"/>
<circle cx="141.611" cy="72.2985" r="4.5" transform="rotate(-9.5063 141.611 72.2985)" fill="#5A81FA"/>
<circle cx="181.181" cy="139.181" r="4.5" transform="rotate(-9.5063 181.181 139.181)" fill="#52E05B"/>
<circle cx="141.408" cy="128.605" r="8" transform="rotate(-9.5063 141.408 128.605)" fill="#FE5E5E"/>
<circle cx="160.82" cy="147.661" r="3" transform="rotate(-9.5063 160.82 147.661)" fill="#FFD83D"/>
<circle cx="25.3302" cy="113.57" r="3" transform="rotate(-9.5063 25.3302 113.57)" fill="#FE5E5E"/>
<circle cx="137.164" cy="169.873" r="3" transform="rotate(-9.5063 137.164 169.873)" fill="#5A81FA"/>
<path d="M164.565 100.393C164.839 102.027 163.736 103.573 162.102 103.847C160.468 104.121 158.921 103.018 158.648 101.384C158.374 99.7495 159.477 98.203 161.111 97.9293C162.745 97.6557 164.292 98.7586 164.565 100.393Z" fill="#FFD83D"/>
<circle cx="50.133" cy="86.0961" r="3" transform="rotate(-9.5063 50.133 86.0961)" fill="#52E05B"/>
<path fill-rule="evenodd" clip-rule="evenodd" d="M130.065 148.966C137.562 147.505 155.276 148.081 166.298 162.674C167.629 164.437 167.279 166.946 165.516 168.277C163.754 169.608 161.244 169.259 159.913 167.496C151.466 156.311 137.504 155.667 131.596 156.819C129.427 157.241 127.327 155.826 126.904 153.658C126.482 151.49 127.897 149.389 130.065 148.966ZM175.753 97.2779C177.274 95.6762 179.805 95.6107 181.407 97.1314C183.435 99.0568 185.347 101.514 186.791 104.028C188.189 106.461 189.391 109.365 189.511 112.138C189.572 113.57 189.355 115.221 188.462 116.743C187.524 118.342 186.056 119.429 184.315 119.991C181.166 121.007 177.133 120.322 172.555 118.69C168.646 117.297 166.82 117.377 166.211 117.526C166.199 117.613 166.187 117.737 166.19 117.906C166.209 118.965 166.689 120.653 167.715 122.617C168.709 124.52 170.011 126.289 171.226 127.481C172.804 129.028 172.828 131.56 171.281 133.137C169.734 134.714 167.202 134.739 165.625 133.192C163.734 131.337 161.953 128.865 160.624 126.321C159.326 123.837 158.242 120.869 158.192 118.047C158.167 116.599 158.411 114.967 159.262 113.456C160.155 111.87 161.559 110.704 163.317 110.057C166.532 108.874 170.631 109.511 175.242 111.155C178.834 112.435 180.717 112.536 181.515 112.443C181.463 111.52 180.965 109.946 179.854 108.013C178.774 106.133 177.334 104.296 175.899 102.933C174.297 101.412 174.232 98.88 175.753 97.2779ZM9.16878 52.6334C9.80459 50.5178 12.0356 49.318 14.1512 49.9537C22.1284 52.3508 28.8856 59.6898 33.5897 67.2838C38.3461 74.9622 41.6443 83.9355 42.0291 90.8072C42.1526 93.0128 40.4652 94.9014 38.2596 95.025C36.0539 95.1485 34.1653 93.4602 34.0418 91.2545C33.7551 86.1348 31.1005 78.4571 26.7889 71.4967C22.4248 64.4516 16.999 59.1635 11.8485 57.6158C9.73289 56.98 8.53306 54.749 9.16878 52.6334ZM144.679 78.2437C153.625 74.3274 166.136 72.7181 179.745 81.6998C181.589 82.9167 182.097 85.3981 180.88 87.2418C179.663 89.0854 177.181 89.5934 175.338 88.3765C164.439 81.184 154.882 82.5096 147.887 85.5719C144.32 87.1332 141.409 89.1631 139.384 90.816C138.376 91.6381 137.602 92.355 137.092 92.8541C136.837 93.1031 136.648 93.2964 136.53 93.4205C136.504 93.4475 136.482 93.4713 136.463 93.4917C136.439 93.5178 136.42 93.5381 136.407 93.5523L136.386 93.5758L136.386 93.5747L136.251 93.7183C134.765 95.2253 132.343 95.3189 130.745 93.8961C129.095 92.4271 128.948 89.8985 130.417 88.2486L133.334 90.8453C130.528 88.3466 130.422 88.2508 130.42 88.2457L130.424 88.2418L130.431 88.233C130.437 88.2266 130.444 88.2185 130.452 88.2096C130.469 88.1912 130.49 88.1669 130.516 88.1383C130.569 88.0811 130.641 88.0042 130.732 87.9088C130.914 87.7179 131.171 87.4534 131.501 87.1314C132.159 86.4882 133.111 85.6095 134.326 84.6178C136.746 82.6428 140.274 80.1717 144.679 78.2437ZM95.3543 24.4527C96.9644 22.9402 99.4951 23.0194 101.008 24.6295L99.0242 26.4925C101.008 24.6292 101.011 24.6314 101.011 24.6314L101.014 24.6344L101.017 24.6378L101.02 24.6422L101.028 24.6501L101.04 24.6627C101.048 24.6716 101.058 24.6822 101.069 24.6942L101.099 24.7281C101.149 24.7818 101.216 24.8559 101.3 24.9498C101.467 25.1375 101.7 25.4046 101.986 25.7457C102.558 26.4274 103.343 27.4089 104.236 28.6461C106.015 31.1099 108.262 34.6446 110.084 38.898C113.721 47.3894 115.842 59.2627 108.403 70.94C107.216 72.8031 104.744 73.3514 102.881 72.1646C101.018 70.9778 100.469 68.5054 101.656 66.6422C107.139 58.0352 105.791 49.1966 102.729 42.0474C101.202 38.4809 99.2913 35.4632 97.7508 33.3297C96.9844 32.2682 96.3193 31.4389 95.8553 30.8853C95.6236 30.6089 95.4424 30.4019 95.325 30.2701C95.2665 30.2044 95.2243 30.157 95.1991 30.1295L95.1756 30.1041C93.6651 28.4939 93.7449 25.9646 95.3543 24.4527ZM95.1756 30.1041L95.1737 30.1031L95.1727 30.1012L95.1756 30.1041Z" fill="#FE5E5E"/>
<path fill-rule="evenodd" clip-rule="evenodd" d="M166.298 162.674C155.276 148.081 137.562 147.505 130.065 148.966C127.897 149.389 126.482 151.49 126.904 153.658C127.327 155.826 129.427 157.241 131.596 156.819C137.504 155.667 151.466 156.311 159.913 167.496C161.244 169.259 163.754 169.608 165.516 168.277C167.279 166.946 167.629 164.437 166.298 162.674ZM179.745 81.6998C166.136 72.7181 153.625 74.3274 144.679 78.2437C140.274 80.1717 136.746 82.6428 134.326 84.6178C133.111 85.6095 132.159 86.4882 131.501 87.1314C131.171 87.4534 130.914 87.7179 130.732 87.9088C130.641 88.0042 130.569 88.0811 130.516 88.1383C130.49 88.1669 130.469 88.1912 130.452 88.2096C130.444 88.2185 130.437 88.2266 130.431 88.233L130.424 88.2418L130.42 88.2457C130.422 88.2508 130.528 88.3466 133.334 90.8453L130.417 88.2486C128.948 89.8985 129.095 92.4271 130.745 93.8961C132.343 95.3189 134.765 95.2253 136.251 93.7183L136.386 93.5747L136.407 93.5523C136.42 93.5381 136.439 93.5178 136.463 93.4917C136.482 93.4713 136.504 93.4475 136.53 93.4205C136.648 93.2964 136.837 93.1031 137.092 92.8541C137.602 92.355 138.376 91.6381 139.384 90.816C141.409 89.1631 144.32 87.1332 147.887 85.5719C154.882 82.5096 164.439 81.184 175.338 88.3765C177.181 89.5934 179.663 89.0854 180.88 87.2418C182.097 85.3981 181.589 82.9167 179.745 81.6998ZM88.1883 53.731C87.833 51.5507 85.7768 50.0711 83.5965 50.4264C70.0128 52.6398 63.4275 62.8657 60.3192 71.6451C58.7546 76.0642 57.9836 80.3147 57.6004 83.4371C57.4079 85.0062 57.3107 86.3108 57.2616 87.2349C57.237 87.6974 57.2251 88.0662 57.2186 88.3267C57.2153 88.4571 57.2136 88.5606 57.2127 88.6353C57.2123 88.6724 57.2119 88.7024 57.2118 88.7252V88.7545L57.212 88.7557L57.2112 88.76L57.2108 88.7642V88.7682C57.2108 88.7682 57.2113 88.7712 61.2108 88.7711L57.2108 88.7721C57.2111 90.981 59.0027 92.7712 61.2118 92.7711C63.3517 92.7708 65.0989 91.0905 65.2059 88.9771L65.2108 88.7779C65.2108 88.7779 65.2117 88.7761 65.2118 88.773L65.2117 88.7645C65.2117 88.7569 65.2116 88.7461 65.2118 88.732C65.2122 88.6905 65.2133 88.621 65.2157 88.526C65.2204 88.3358 65.2305 88.0424 65.2508 87.6598C65.2916 86.8934 65.3737 85.7741 65.5409 84.4117C65.8772 81.6711 66.5464 78.0259 67.8602 74.315C70.5088 66.8342 75.4378 59.8619 84.8836 58.3228C87.0639 57.9674 88.5436 55.9113 88.1883 53.731ZM95.1756 30.1041L95.1727 30.1012L95.1737 30.1031L95.1756 30.1041ZM160.849 27.1197C158.094 26.6433 154.981 26.5792 152.102 26.9224C149.316 27.2547 146.269 28.025 143.973 29.5855C142.788 30.3914 141.594 31.5521 140.907 33.1773C140.185 34.8851 140.191 36.7115 140.78 38.443C141.846 41.5756 144.804 44.4011 148.847 47.0972C152.298 49.3992 153.324 50.9117 153.569 51.4898C153.506 51.5512 153.414 51.6348 153.277 51.733C152.417 52.3504 150.776 52.9744 148.589 53.3248C146.469 53.6643 144.273 53.6764 142.591 53.4137C140.408 53.0728 138.362 54.5659 138.021 56.7486C137.681 58.9312 139.174 60.9771 141.356 61.318C143.974 61.7267 147.02 61.6782 149.854 61.2242C152.621 60.781 155.649 59.8785 157.942 58.233C159.119 57.3886 160.283 56.2173 160.986 54.6324C161.724 52.969 161.82 51.146 161.289 49.3492C160.318 46.0644 157.358 43.157 153.286 40.441C150.113 38.3248 148.907 36.8748 148.505 36.1793C149.276 35.6699 150.836 35.1298 153.05 34.8658C155.203 34.609 157.536 34.6664 159.486 35.0035C161.663 35.3798 163.733 33.9196 164.109 31.7428C164.485 29.566 163.026 27.496 160.849 27.1197Z" fill="#FFD83D"/>
<path fill-rule="evenodd" clip-rule="evenodd" d="M95.3548 24.4527C96.9649 22.9402 99.4956 23.0194 101.008 24.6295L99.0247 26.4925C101.009 24.6292 101.008 24.6295 101.008 24.6295L101.017 24.6378L101.028 24.6501L101.04 24.6627C101.049 24.6716 101.058 24.6822 101.069 24.6942L101.1 24.7281C101.149 24.7818 101.217 24.8559 101.3 24.9498C101.467 25.1375 101.701 25.4046 101.987 25.7457C102.558 26.4274 103.343 27.4089 104.237 28.6461C106.016 31.1099 108.263 34.6446 110.084 38.898C113.721 47.3894 115.842 59.2627 108.404 70.94C107.217 72.8031 104.744 73.3514 102.881 72.1646C101.018 70.9778 100.47 68.5054 101.657 66.6422C107.139 58.0352 105.792 49.1966 102.73 42.0474C101.202 38.4809 99.2918 35.4632 97.7513 33.3297C96.9848 32.2682 96.3198 31.4389 95.8558 30.8853C95.6241 30.6089 95.4429 30.4019 95.3255 30.2701C95.267 30.2044 95.2247 30.157 95.1995 30.1295L95.1761 30.1041C93.6656 28.4939 93.7454 25.9646 95.3548 24.4527Z" fill="#52E05B"/>
<path fill-rule="evenodd" clip-rule="evenodd" d="M166.298 162.674C155.277 148.081 137.562 147.505 130.066 148.966C127.898 149.389 126.482 151.49 126.905 153.658C127.327 155.826 129.428 157.241 131.596 156.819C137.504 155.667 151.466 156.311 159.913 167.496C161.245 169.259 163.754 169.608 165.517 168.277C167.279 166.946 167.629 164.437 166.298 162.674Z" fill="#52E05B"/>
</svg>
