<svg width="18" height="18" viewBox="0 0 18 18" fill="none" xmlns="http://www.w3.org/2000/svg">
<path d="M13.116 16.1516C11.9047 16.8502 10.4992 17.25 9.00033 17.25C4.44398 17.25 0.75 13.5563 0.75 9C0.75 4.44365 4.44365 0.75 9 0.75C13.5563 0.75 17.25 4.44365 17.25 9C17.25 10.4989 16.8503 11.9044 16.1517 13.1157L16.149 13.1204C16.0817 13.237 16.0478 13.2957 16.0325 13.3513C16.018 13.4037 16.0139 13.4508 16.0177 13.505C16.0216 13.5633 16.0413 13.6237 16.0815 13.7445L16.7863 15.8587L16.7872 15.8615C16.9359 16.3076 17.0102 16.5306 16.9572 16.6793C16.911 16.8088 16.8085 16.9111 16.6789 16.9573C16.5306 17.0102 16.3085 16.9362 15.8644 16.7881L15.8589 16.7861L13.7446 16.0813C13.6242 16.0412 13.563 16.0209 13.5049 16.0169C13.4506 16.0132 13.4039 16.0181 13.3515 16.0326C13.2958 16.0479 13.237 16.0819 13.1198 16.1494L13.116 16.1516Z" stroke="#5A81FA" stroke-width="1.5" stroke-linecap="round" stroke-linejoin="round"/>
</svg>
