<svg width="18" height="18" viewBox="0 0 18 18" fill="none" xmlns="http://www.w3.org/2000/svg">
<path d="M1.5 9C1.5 4.85786 4.85786 1.5 9 1.5C13.1421 1.5 16.5 4.85786 16.5 9C16.5 10.3638 16.1366 11.6407 15.502 12.7412L15.499 12.7461C15.466 12.8034 15.4021 12.9065 15.3525 13.0264L15.3096 13.1514L15.2852 13.2559C15.2663 13.3586 15.2628 13.4582 15.2695 13.5566C15.2816 13.7318 15.3415 13.8957 15.3701 13.9814L16.0654 16.0635L13.9814 15.3701C13.9007 15.3432 13.732 15.2806 13.5557 15.2686L13.4521 15.2656C13.3839 15.2667 13.3172 15.2735 13.251 15.2861L13.1514 15.3096L13.0264 15.3535C12.9063 15.4032 12.8027 15.4668 12.7451 15.5L12.7412 15.502C11.6408 16.1366 10.3638 16.5 9 16.5C4.85797 16.4998 1.5 13.142 1.5 9ZM12.665 8.25C12.4631 8.25 12.2691 8.33113 12.1279 8.47559C11.9868 8.62004 11.9103 8.8157 11.915 9.01758V9.01953C11.9197 9.2184 12.0035 9.40762 12.1475 9.54492C12.2914 9.68203 12.4839 9.75665 12.6826 9.75195H12.6846C13.0916 9.74221 13.4169 9.4091 13.417 9.00195V9C13.417 8.58589 13.0811 8.25018 12.667 8.25H12.665ZM8.99805 8.25C8.79627 8.25003 8.60299 8.33133 8.46191 8.47559C8.32079 8.62004 8.24333 8.81568 8.24805 9.01758V9.01953C8.25274 9.2184 8.33652 9.40762 8.48047 9.54492C8.62444 9.68218 8.81774 9.75671 9.0166 9.75195C9.42366 9.74221 9.74991 9.4091 9.75 9.00195V9C9.75 8.58579 9.41421 8.25 9 8.25H8.99805ZM5.33105 8.25C5.12932 8.25012 4.93593 8.33131 4.79492 8.47559C4.6538 8.62004 4.57731 8.81568 4.58203 9.01758V9.01953C4.58673 9.21838 4.66955 9.40763 4.81348 9.54492C4.95747 9.68226 5.15068 9.75671 5.34961 9.75195H5.35156C5.75848 9.74207 6.08292 9.40901 6.08301 9.00195V9C6.08301 8.58579 5.74722 8.25 5.33301 8.25H5.33105ZM0 9C0 13.9705 4.02963 17.9998 9 18C10.6339 18 12.169 17.5643 13.4912 16.8018L13.4941 16.7988C13.4981 16.7965 13.5021 16.7941 13.5059 16.792L13.5078 16.793L15.6221 17.498L15.627 17.5C15.8347 17.5693 16.04 17.6386 16.2109 17.6787C16.3712 17.7163 16.6437 17.7663 16.9307 17.6641C17.2714 17.5426 17.5419 17.2739 17.6641 16.9316C17.7665 16.6444 17.7154 16.3715 17.6777 16.2109C17.6375 16.0395 17.5686 15.8329 17.499 15.624L16.793 13.5068L16.7988 13.4951L16.8018 13.4902C17.5642 12.168 18 10.6337 18 9C18 4.02944 13.9706 0 9 0C4.02944 0 0 4.02944 0 9Z" fill="#5A81FA"/>
</svg>
