<svg width="24" height="24" viewBox="0 0 24 24" fill="none" xmlns="http://www.w3.org/2000/svg">
<rect width="24" height="24" fill="white"/>
<path d="M15 16.25C15.4142 16.25 15.75 16.5858 15.75 17C15.75 17.4142 15.4142 17.75 15 17.75H9C8.58579 17.75 8.25 17.4142 8.25 17C8.25 16.5858 8.58579 16.25 9 16.25H15Z" fill="#6D6D6D"/>
<path d="M15 13.25C15.4142 13.25 15.75 13.5858 15.75 14C15.75 14.4142 15.4142 14.75 15 14.75H9C8.58579 14.75 8.25 14.4142 8.25 14C8.25 13.5858 8.58579 13.25 9 13.25H15Z" fill="#6D6D6D"/>
<path fill-rule="evenodd" clip-rule="evenodd" d="M13.1719 2.25C13.9011 2.25008 14.6006 2.54001 15.1162 3.05566L18.9443 6.88379C19.46 7.39944 19.7499 8.09889 19.75 8.82812V19.2002C19.7499 20.5884 18.6504 21.75 17.25 21.75H6.75C5.34958 21.75 4.2501 20.5884 4.25 19.2002V4.7998C4.2501 3.41162 5.34958 2.25 6.75 2.25H13.1719ZM6.75 3.75C6.21755 3.75 5.7501 4.19995 5.75 4.7998V19.2002C5.7501 19.8001 6.21755 20.25 6.75 20.25H17.25C17.7824 20.25 18.2499 19.8001 18.25 19.2002V9.75H15C13.4812 9.75 12.25 8.51878 12.25 7V3.75H6.75ZM13.75 7C13.75 7.69036 14.3096 8.25 15 8.25H18.1074C18.0492 8.1384 17.9744 8.03497 17.8838 7.94434L14.0557 4.11621C13.9649 4.02547 13.8617 3.9499 13.75 3.8916V7Z" fill="#6D6D6D"/>
</svg>
