<svg width="15" height="14" viewBox="0 0 15 14" fill="none" xmlns="http://www.w3.org/2000/svg">
<path d="M6.76201 1.87054H1.89156C1.52249 1.87054 1.16855 2.00668 0.907578 2.24901C0.64661 2.49134 0.5 2.82 0.5 3.16271V12.2078C0.5 12.5505 0.64661 12.8792 0.907578 13.1215C1.16855 13.3639 1.52249 13.5 1.89156 13.5H11.6325C12.0015 13.5 12.3555 13.3639 12.6165 13.1215C12.8774 12.8792 13.024 12.5505 13.024 12.2078V7.68527M11.9804 0.901423C12.2572 0.644396 12.6326 0.5 13.024 0.5C13.4155 0.5 13.7909 0.644396 14.0677 0.901423C14.3445 1.15845 14.5 1.50705 14.5 1.87054C14.5 2.23404 14.3445 2.58264 14.0677 2.83967L7.45779 8.97743L4.67468 9.62352L5.37046 7.03919L11.9804 0.901423Z" stroke="#5A81FA" stroke-linecap="round" stroke-linejoin="round"/>
</svg>
