<svg width="16" height="16" viewBox="0 0 16 16" fill="none" xmlns="http://www.w3.org/2000/svg">
<path d="M9.66667 12.5833H15.5M0.5 12.5833H2.16667M2.16667 12.5833C2.16667 13.7339 3.09941 14.6667 4.25 14.6667C5.40059 14.6667 6.33333 13.7339 6.33333 12.5833C6.33333 11.4327 5.40059 10.5 4.25 10.5C3.09941 10.5 2.16667 11.4327 2.16667 12.5833ZM14.6667 7.58333H15.5M0.5 7.58333H6.33333M8.83333 2.58333H15.5M8.83333 2.58333C8.83333 1.43274 7.90059 0.5 6.75 0.5C5.59941 0.5 4.66667 1.43274 4.66667 2.58333C4.66667 3.73393 5.59941 4.66667 6.75 4.66667C7.90059 4.66667 8.83333 3.73393 8.83333 2.58333ZM0.5 2.58333H1.33333M11.75 9.66667C10.5994 9.66667 9.66667 8.73393 9.66667 7.58333C9.66667 6.43274 10.5994 5.5 11.75 5.5C12.9006 5.5 13.8333 6.43274 13.8333 7.58333C13.8333 8.73393 12.9006 9.66667 11.75 9.66667Z" stroke="#4F4F4F" stroke-linecap="round" stroke-linejoin="round"/>
</svg>
