<svg width="24" height="24" viewBox="0 0 24 24" fill="none" xmlns="http://www.w3.org/2000/svg">
<rect width="24" height="24" fill="white"/>
<path d="M14.5 14.25C16.0188 14.25 17.25 15.4812 17.25 17V20C17.25 20.4142 16.9142 20.75 16.5 20.75C16.0858 20.75 15.75 20.4142 15.75 20V17C15.75 16.3096 15.1904 15.75 14.5 15.75H4.5C3.80964 15.75 3.25 16.3096 3.25 17V20C3.25 20.4142 2.91421 20.75 2.5 20.75C2.08579 20.75 1.75 20.4142 1.75 20V17C1.75 15.4812 2.98122 14.25 4.5 14.25H14.5Z" fill="#6D6D6D"/>
<path d="M19.5 14.25C21.0188 14.25 22.25 15.4812 22.25 17V20C22.25 20.4142 21.9142 20.75 21.5 20.75C21.0858 20.75 20.75 20.4142 20.75 20V17C20.75 16.3096 20.1904 15.75 19.5 15.75H18.5C18.0858 15.75 17.75 15.4142 17.75 15C17.75 14.5858 18.0858 14.25 18.5 14.25H19.5Z" fill="#6D6D6D"/>
<path fill-rule="evenodd" clip-rule="evenodd" d="M10 3.25C12.3472 3.25 14.25 5.15279 14.25 7.5C14.25 9.84721 12.3472 11.75 10 11.75C7.65279 11.75 5.75 9.84721 5.75 7.5C5.75 5.15279 7.65279 3.25 10 3.25ZM10 4.75C8.48122 4.75 7.25 5.98122 7.25 7.5C7.25 9.01878 8.48122 10.25 10 10.25C11.5188 10.25 12.75 9.01878 12.75 7.5C12.75 5.98122 11.5188 4.75 10 4.75Z" fill="#6D6D6D"/>
<path d="M15.5 3.25C17.6754 3.25 19.25 5.26542 19.25 7.5C19.25 9.73458 17.6754 11.75 15.5 11.75C15.0858 11.75 14.75 11.4142 14.75 11C14.75 10.5858 15.0858 10.25 15.5 10.25C16.6383 10.25 17.75 9.13141 17.75 7.5C17.75 5.86859 16.6383 4.75 15.5 4.75C15.0858 4.75 14.75 4.41421 14.75 4C14.75 3.58579 15.0858 3.25 15.5 3.25Z" fill="#6D6D6D"/>
</svg>
