<svg width="52" height="54" viewBox="0 0 52 54" fill="none" xmlns="http://www.w3.org/2000/svg">
<path d="M7.56709 52.8263C4.23416 54.6947 0.12207 52.2858 0.12207 48.4649V25C0.12207 22.2386 2.36065 20 5.12207 20H46.9783C52.1274 20 53.9148 26.8435 49.4234 29.3614L7.56709 52.8263ZM52 10.2979C52 13.0593 49.7614 15.2979 47 15.2979H22.3477C19.5862 15.2979 17.3477 13.0593 17.3477 10.2979V5C17.3477 2.23858 19.5862 0 22.3477 0H47C49.7614 0 52 2.23858 52 5V10.2979ZM10.0938 0C12.8552 0 15.0938 2.23858 15.0938 5V10.0938C15.0938 12.8552 12.8552 15.0938 10.0938 15.0938H5C2.23858 15.0938 0 12.8552 0 10.0938V5C0 2.23858 2.23858 0 5 0H10.0938Z" fill="#5A81FA"/>
</svg>
