<svg width="24" height="24" viewBox="0 0 24 24" fill="none" xmlns="http://www.w3.org/2000/svg">
<rect width="24" height="24" fill="white"/>
<path d="M9.24988 19C9.24988 18.5858 9.58573 18.2501 9.99988 18.25C10.4141 18.25 10.7499 18.5858 10.7499 19C10.7499 19.6903 11.3096 20.2499 11.9999 20.25C12.6902 20.25 13.2499 19.6904 13.2499 19C13.2499 18.5858 13.5857 18.2501 13.9999 18.25C14.4141 18.25 14.7499 18.5858 14.7499 19C14.7499 20.5188 13.5187 21.75 11.9999 21.75C10.4812 21.7499 9.24988 20.5187 9.24988 19ZM16.7499 9C16.7499 6.81827 15.9299 5.54056 14.9745 4.79004C13.9852 4.01302 12.7825 3.75 11.9999 3.75C11.2173 3.75003 10.0154 4.01317 9.02624 4.79004C8.07075 5.54054 7.24988 6.81808 7.24988 9C7.24988 12.2601 6.50621 14.4408 5.68445 15.75H18.3163C17.4944 14.4408 16.7499 12.2603 16.7499 9ZM18.2499 9C18.2499 12.7613 19.3095 14.7468 20.0126 15.5264C20.3278 15.8758 20.2935 16.3169 20.1981 16.5781C20.104 16.8356 19.8189 17.2499 19.2782 17.25H4.72253C4.18169 17.25 3.89576 16.8357 3.80163 16.5781C3.70628 16.3169 3.67201 15.8757 3.98718 15.5264L4.12292 15.3662C4.81863 14.492 5.74988 12.5266 5.74988 9C5.74988 6.38192 6.76331 4.65985 8.09948 3.61035C9.40182 2.58746 10.9492 2.25003 11.9999 2.25C13.0506 2.25 14.5988 2.58737 15.9012 3.61035C17.2372 4.65988 18.2499 6.38216 18.2499 9Z" fill="#1F1F1F"/>
<circle cx="16.5" cy="5.5" r="4.5" fill="#5A81FA" stroke="white" stroke-width="2"/>
</svg>
