<svg width="90" height="90" viewBox="0 0 90 90" fill="none" xmlns="http://www.w3.org/2000/svg">
<g clip-path="url(#clip0_2141_14070)">
<circle cx="45" cy="45" r="45" fill="#EFEFEF"/>
<path d="M82 90V80.7918C82 75.9075 80.0509 71.2233 76.5815 67.7695C73.112 64.3158 68.4065 62.3755 63.5 62.3755H26.5C21.5935 62.3755 16.8879 64.3158 13.4185 67.7695C9.9491 71.2233 8 75.9075 8 80.7918V90" fill="#D1D1D1"/>
<path d="M45 54.8327C55.2173 54.8327 63.5 46.5874 63.5 36.4163C63.5 26.2453 55.2173 18 45 18C34.7828 18 26.5 26.2453 26.5 36.4163C26.5 46.5874 34.7828 54.8327 45 54.8327Z" fill="#D1D1D1"/>
</g>
<defs>
<clipPath id="clip0_2141_14070">
<rect width="90" height="90" rx="45" fill="white"/>
</clipPath>
</defs>
</svg>
