<svg width="24" height="24" viewBox="0 0 24 24" fill="none" xmlns="http://www.w3.org/2000/svg">
<path d="M8.5 12.75C10.0188 12.75 11.25 13.9812 11.25 15.5V18.5C11.25 20.0188 10.0188 21.25 8.5 21.25H5.5C3.98122 21.25 2.75 20.0188 2.75 18.5V15.5C2.75 13.9812 3.98122 12.75 5.5 12.75H8.5Z" fill="white"/>
<path d="M18.5 12.75C20.0188 12.75 21.25 13.9812 21.25 15.5V18.5C21.25 20.0188 20.0188 21.25 18.5 21.25H15.5C13.9812 21.25 12.75 20.0188 12.75 18.5V15.5C12.75 13.9812 13.9812 12.75 15.5 12.75H18.5Z" fill="white"/>
<path d="M8.5 2.75C10.0188 2.75 11.25 3.98122 11.25 5.5V8.5C11.25 10.0188 10.0188 11.25 8.5 11.25H5.5C3.98122 11.25 2.75 10.0188 2.75 8.5V5.5C2.75 3.98122 3.98122 2.75 5.5 2.75H8.5Z" fill="white"/>
<path d="M18.5 2.75C20.0188 2.75 21.25 3.98122 21.25 5.5V8.5C21.25 10.0188 20.0188 11.25 18.5 11.25H15.5C13.9812 11.25 12.75 10.0188 12.75 8.5V5.5C12.75 3.98122 13.9812 2.75 15.5 2.75H18.5Z" fill="white"/>
</svg>
