<svg width="24" height="24" viewBox="0 0 24 24" fill="none" xmlns="http://www.w3.org/2000/svg">
<rect width="24" height="24" fill="white"/>
<path d="M16.0176 14.25C16.4318 14.25 16.7676 14.5858 16.7676 15V16C16.7676 16.138 16.8795 16.25 17.0176 16.25H18.0176C18.4318 16.25 18.7676 16.5858 18.7676 17C18.7676 17.4142 18.4318 17.75 18.0176 17.75H17.0176C16.0511 17.75 15.2676 16.9665 15.2676 16V15C15.2676 14.5858 15.6034 14.25 16.0176 14.25Z" fill="#6D6D6D"/>
<path fill-rule="evenodd" clip-rule="evenodd" d="M16.5176 11.25C19.4171 11.25 21.7676 13.6005 21.7676 16.5C21.7676 19.3995 19.4171 21.75 16.5176 21.75C13.6181 21.75 11.2676 19.3995 11.2676 16.5C11.2676 13.6005 13.6181 11.25 16.5176 11.25ZM16.5176 12.75C14.4466 12.75 12.7676 14.429 12.7676 16.5C12.7676 18.571 14.4466 20.25 16.5176 20.25C18.5887 20.25 20.2676 18.5711 20.2676 16.5C20.2676 14.4289 18.5887 12.75 16.5176 12.75Z" fill="#6D6D6D"/>
<path fill-rule="evenodd" clip-rule="evenodd" d="M16.0176 2.25C16.4318 2.25 16.7676 2.58579 16.7676 3V3.25H18.0176C19.5364 3.25 20.7676 4.48122 20.7676 6V10C20.7676 10.4142 20.4318 10.75 20.0176 10.75C19.6034 10.75 19.2676 10.4142 19.2676 10V8.25H3.73829L3.7627 17.5029C3.76449 18.192 4.32361 18.75 5.0127 18.75H9.51759C9.9318 18.75 10.2676 19.0858 10.2676 19.5C10.2676 19.9142 9.9318 20.25 9.51759 20.25H5.0127C3.4967 20.25 2.26662 19.0228 2.2627 17.5068L2.23243 6.00684C2.22865 4.48551 3.4611 3.25017 4.98243 3.25H6.26759V3C6.26759 2.58581 6.6034 2.25004 7.01759 2.25C7.4318 2.25 7.76759 2.58579 7.76759 3V3.25H15.2676V3C15.2676 2.58581 15.6034 2.25004 16.0176 2.25ZM4.98243 4.75C4.29105 4.75016 3.73081 5.31155 3.73243 6.00293L3.73438 6.75H19.2676V6C19.2676 5.30964 18.7079 4.75 18.0176 4.75H16.7676V5C16.7676 5.41421 16.4318 5.75 16.0176 5.75C15.6034 5.74996 15.2676 5.41419 15.2676 5V4.75H7.76759V5C7.76759 5.41421 7.4318 5.75 7.01759 5.75C6.6034 5.74996 6.26759 5.41419 6.26759 5V4.75H4.98243Z" fill="#6D6D6D"/>
</svg>
