<svg width="24" height="24" viewBox="0 0 24 24" fill="none" xmlns="http://www.w3.org/2000/svg">
<rect width="24" height="24" fill="white"/>
<path fill-rule="evenodd" clip-rule="evenodd" d="M16.5151 11.25C19.4146 11.25 21.7651 13.6005 21.7651 16.5C21.7651 19.3995 19.4146 21.75 16.5151 21.75C13.6157 21.75 11.2651 19.3995 11.2651 16.5C11.2651 13.6005 13.6157 11.25 16.5151 11.25ZM16.0151 14.25C15.601 14.25 15.2651 14.5858 15.2651 15V16C15.2651 16.9665 16.0487 17.75 17.0151 17.75H18.0151C18.4294 17.75 18.7651 17.4142 18.7651 17C18.7651 16.5858 18.4294 16.25 18.0151 16.25H17.0151C16.8771 16.25 16.7651 16.138 16.7651 16V15C16.7651 14.5858 16.4294 14.25 16.0151 14.25Z" fill="#1F1F1F"/>
<path d="M16.0151 2.25C16.4294 2.25 16.7651 2.58579 16.7651 3V3.25H18.0151C19.5339 3.25 20.7651 4.48122 20.7651 6V10C20.7651 10.4142 20.4294 10.75 20.0151 10.75C19.601 10.75 19.2651 10.4142 19.2651 10V8.25H3.73585L3.76026 17.5029C3.76204 18.192 4.32118 18.75 5.01026 18.75H9.51515C9.92936 18.75 10.2651 19.0858 10.2651 19.5C10.2651 19.9142 9.92936 20.25 9.51515 20.25H5.01026C3.49427 20.25 2.26418 19.0228 2.26026 17.5068L2.22999 6.00684C2.2262 4.48551 3.45867 3.25017 4.97999 3.25H6.26515V3C6.26515 2.58582 6.60097 2.25005 7.01515 2.25C7.42936 2.25 7.76515 2.58579 7.76515 3V3.25H15.2651V3C15.2651 2.58582 15.601 2.25005 16.0151 2.25Z" fill="#1F1F1F"/>
</svg>
