<svg width="30" height="30" viewBox="0 0 30 30" fill="none" xmlns="http://www.w3.org/2000/svg">
<circle cx="15" cy="15" r="15" fill="#FEE742"/>
<path d="M15.8348 19.66C15.8348 19.9 15.7398 20.12 15.5498 20.32C15.3698 20.51 15.1648 20.605 14.9348 20.605C14.7048 20.605 14.4998 20.51 14.3198 20.32C14.1398 20.12 14.0498 19.9 14.0498 19.66C14.0498 19.4 14.1398 19.18 14.3198 19C14.4998 18.81 14.7048 18.715 14.9348 18.715C15.1648 18.715 15.3698 18.81 15.5498 19C15.7398 19.19 15.8348 19.41 15.8348 19.66ZM15.5798 17.0598C15.5798 17.4498 15.3898 17.6448 15.0098 17.6448H14.8148C14.4648 17.6448 14.2898 17.4598 14.2898 17.0898V10.0548C14.2898 9.70478 14.4748 9.52979 14.8448 9.52979H15.0698C15.4098 9.52979 15.5798 9.71479 15.5798 10.0848V17.0598Z" fill="black"/>
</svg>
