<svg width="24" height="24" viewBox="0 0 24 24" fill="none" xmlns="http://www.w3.org/2000/svg">
<rect width="24" height="24" fill="white"/>
<path d="M14.4669 7.07607C14.303 7.25311 14.2112 7.49114 14.2112 7.73905C14.2112 7.98697 14.303 8.225 14.4669 8.40204L15.8981 9.91743C16.0653 10.091 16.2901 10.1882 16.5242 10.1882C16.7584 10.1882 16.9832 10.091 17.1504 9.91743L19.4755 7.45558C19.9699 6.93202 20.8301 7.09826 20.9354 7.81066C21.0279 8.43653 21.0215 9.07795 20.9131 9.70826C20.7175 10.8447 20.1995 11.8911 19.428 12.7079C18.6566 13.5247 17.6683 14.0732 16.595 14.2803C15.7603 14.4413 14.9049 14.3899 14.0983 14.1351C13.6838 14.0041 13.2178 14.0814 12.9193 14.3974L7.23928 20.4115C6.88343 20.7883 6.40078 21 5.89753 21C5.39427 21 4.91163 20.7883 4.55577 20.4115C4.19992 20.0347 4 19.5237 4 18.9909C4 18.458 4.19992 17.947 4.55577 17.5702L10.2866 11.5023C10.56 11.2128 10.6281 10.7907 10.5132 10.4095C10.247 9.52586 10.1882 8.58317 10.3464 7.66409C10.5419 6.52763 11.06 5.48127 11.8314 4.66444C12.6029 3.84761 13.5911 3.29911 14.6644 3.09205C15.2877 2.97181 15.9224 2.97001 16.5397 3.08288C17.2063 3.20475 17.3635 4.00908 16.8982 4.50172L14.4758 7.0666L14.4669 7.07607Z" stroke="#6D6D6D" stroke-width="1.5" stroke-linecap="round" stroke-linejoin="round"/>
</svg>

